<?xml version="1.0" encoding="UTF-8"?>
<svg width="141px" height="119px" viewBox="0 0 141 119" version="1.1" xmlns="http://www.w3.org/2000/svg" xmlns:xlink="http://www.w3.org/1999/xlink">
    <!-- Generator: Sketch 52.5 (67469) - http://www.bohemiancoding.com/sketch -->
    <title>Path</title>
    <desc>Created with Sketch.</desc>
    <g id="Page-1" stroke="none" stroke-width="1" fill="none" fill-rule="evenodd">
        <path d="M140.314,37.654 C140.314,16.858 123.402,0 102.537,0 C88.793,0 76.767,7.317 70.158,18.255 C63.549,7.317 51.521,0 37.777,0 C16.912,0 0,16.858 0,37.654 C0,48.475 4.588,58.224 11.922,65.092 L11.912,65.092 L65.996,116.676 C66.988,117.864 68.476,118.621 70.144,118.621 C71.689,118.621 73.08,117.968 74.064,116.925 L128.41,65.092 L128.394,65.092 C135.729,58.225 140.314,48.476 140.314,37.654" id="Path" fill="#F89B12"></path>
    </g>
</svg>